<?xml version="1.0" encoding="UTF-8" standalone="no"?>
<!-- Creator: CorelDRAW 2020 (64-Bit) -->

<svg
   xml:space="preserve"
   width="197.442mm"
   height="58.154999mm"
   version="1.1"
   style="clip-rule:evenodd;fill-rule:evenodd;image-rendering:optimizeQuality;shape-rendering:geometricPrecision;text-rendering:geometricPrecision"
   viewBox="0 0 19744.2 5815.4999"
   id="svg7"
   xmlns="http://www.w3.org/2000/svg"
   xmlns:svg="http://www.w3.org/2000/svg">
 <defs
   id="defs1"><style
     type="text/css"
     id="style1">
   <![CDATA[
    .fil1 {fill:#FEFEFE}
    .fil0 {fill:#F58634}
    .fil2 {fill:#EE9C62}
    .fil3 {fill:black}
    .fil5 {fill:#F58634;fill-rule:nonzero}
    .fil4 {fill:black;fill-rule:nonzero}
   ]]>
  </style></defs>
 <g
   id="Capa_x0020_1">
  <metadata
   id="CorelCorpID_0Corel-Layer" />
  <g
   id="_1867503456016"
   transform="translate(-4974.4433,-7596.4633)">
   <g
   id="g5">
    <path
   class="fil0"
   d="m 18232.95,8861.06 c 311.24,-170.21 700.43,-57.92 869.29,250.84 168.85,308.75 53.42,697.02 -257.81,867.24 -311.24,170.21 -700.43,57.92 -869.29,-250.84 -168.86,-308.75 -53.43,-697.02 257.81,-867.24 z m 271.34,179.8 c 76.94,-42.07 173.14,-14.31 214.88,62.01 41.74,76.31 13.2,172.29 -63.73,214.36 -76.93,42.07 -173.13,14.32 -214.87,-62 -41.74,-76.32 -13.21,-172.3 63.72,-214.37 z"
   id="path1" />
    <path
   class="fil1"
   d="m 18384.83,9138.78 c 16.26,-8.89 32.95,-16.23 49.89,-22.11 -18.92,43.2 -18.41,94.2 5.85,138.56 41.74,76.32 137.94,104.07 214.87,62 56.64,-30.97 87.03,-91.16 82.48,-151.22 33.69,26.07 62.65,59.29 84.36,98.99 84.97,155.38 26.88,350.77 -129.74,436.42 -156.62,85.66 -352.47,29.15 -437.44,-126.22 -84.98,-155.38 -26.89,-350.77 129.73,-436.42 z"
   id="path2" />
    <path
   class="fil2"
   d="m 18708.78,9270.01 c 10.96,12.36 20.72,26.12 28.97,41.22 59.65,109.06 18.87,246.22 -91.06,306.34 -109.94,60.12 -247.42,20.46 -307.07,-88.6 -59.1,-108.07 -19.58,-243.71 88.1,-304.66 l 0.15,0.49 0.15,0.49 0.3,0.99 0.15,0.49 0.16,0.5 0.15,0.49 0.16,0.49 0.16,0.49 0.16,0.5 0.11,0.34 0.06,0.14 0.16,0.5 0.17,0.49 0.17,0.49 0.17,0.49 0.17,0.49 0.17,0.49 0.54,1.46 0.18,0.49 0.18,0.49 0.18,0.48 0.19,0.49 0.18,0.48 0.17,0.46 0.02,0.04 0.19,0.48 0.2,0.48 0.38,0.97 0.2,0.49 0.2,0.48 0.2,0.49 0.11,0.26 0.1,0.22 0.2,0.48 0.84,1.92 0.21,0.49 0.22,0.48 0.03,0.08 0.19,0.39 0.22,0.49 0.21,0.48 0.45,0.95 0.23,0.48 0.23,0.48 0.17,0.37 0.05,0.1 0.23,0.48 0.24,0.48 0.93,1.86 0.02,0.04 0.24,0.48 0.09,0.18 0.16,0.29 0.24,0.47 1.51,2.83 c 41.74,76.32 137.94,104.07 214.87,62 l 2.03,-1.13 1.02,-0.58 0.52,-0.3 0.48,-0.28 1,-0.59 1.85,-1.11 0.13,-0.09 0.05,-0.02 0.14,-0.09 2.74,-1.73 0.53,-0.35 0.43,-0.27 2.85,-1.91 0.08,-0.05 0.86,-0.6 0.93,-0.66 0.94,-0.65 0.56,-0.4 0.36,-0.27 0.92,-0.68 0.91,-0.67 0.9,-0.68 0.11,-0.08 0.79,-0.61 0.89,-0.7 0.89,-0.7 0.57,-0.45 0.31,-0.24 1.75,-1.43 0.86,-0.73 0.14,-0.11 0.72,-0.61 0.84,-0.73 0.84,-0.73 0.59,-0.51 0.25,-0.24 0.83,-0.75 0.83,-0.75 0.82,-0.76 0.81,-0.76 0.81,-0.76 0.81,-0.78 1.25,-1.23 0.33,-0.32 0.78,-0.79 0.78,-0.79 0.19,-0.2 0.58,-0.6 0.77,-0.8 0.75,-0.81 1.5,-1.62 0.74,-0.82 0.74,-0.83 0.72,-0.83 0.72,-0.83 0.72,-0.83 0.57,-0.68 0.14,-0.16 0.7,-0.85 0.69,-0.85 0.69,-0.85 0.23,-0.28 0.46,-0.58 0.67,-0.87 0.67,-0.87 0.57,-0.73 0.1,-0.14 0.65,-0.88 0.66,-0.87 0.64,-0.88 z"
   id="path3" />
    <path
   class="fil0"
   d="m 17347.18,8380.99 -3.26,217.35 229.82,-73.86 c 190.87,-234.44 597.73,-382.81 891.54,-395.64 7.47,-13.52 14.84,-27.29 22.05,-41.32 35.81,-94.39 79.99,-173.15 129.08,-236.76 -500.42,-28.94 -1003.51,181.14 -1269.23,530.23 z m 1956.44,-329.83 c 249.34,139.6 463.44,348.25 610.34,616.82 144.54,264.34 205.18,552.17 190.83,833.18 -71.54,-59.04 -164.41,-112.51 -281.05,-155.69 -11.11,-184.73 -61.97,-369.77 -156.48,-542.57 -100.45,-183.66 -239.07,-333.27 -400.75,-444.6 8.56,-71.1 22.07,-145.69 40.59,-223.73 0.12,-29.08 -1.06,-56.87 -3.48,-83.41 z m 589.7,2165.42 c -141.86,246.05 -351.36,457.81 -619.4,604.42 -265.26,145.07 -553.34,207.46 -834.26,195.84 67.5,-68.84 130.3,-158.86 182.74,-271.45 1.22,-4.09 2.49,-8.1 3.75,-12.15 174.93,-15.91 349.74,-67.19 513.93,-156.96 185.76,-101.58 337.32,-241.21 450.37,-403.64 66.02,6.65 135.21,17.21 207.58,31.79 33,6.97 64.78,10.87 95.29,12.15 z m -2147.21,609.58 c -257.9,-139.57 -479.5,-352.17 -630.26,-627.89 -153,-279.75 -211.89,-585.75 -187.55,-882.15 28.77,14.81 60.55,27.67 95.52,38.03 63.93,28.39 123.83,58.75 179.83,90.97 0.32,209.59 51.45,421.79 158.87,618.21 107,195.61 257.27,352.62 432.62,465.88 -7.13,94.51 -23.46,193.45 -49.03,296.95 z"
   id="path4" />
    <path
   class="fil3"
   d="m 17744.67,10832.06 c 76.97,-868.8 -66.57,-1187.31 -720.85,-1477.91 -475.28,-140.64 -376.13,-736.34 148.66,-700.5 612.57,136.16 1025.07,-84.79 1314.86,-566.12 220.64,-635.2 919.31,-530.21 819.75,47.04 -96.89,664.78 23.69,1029.7 516.51,1210.86 746.61,276.24 518.71,973.93 -25.55,858.99 -639.09,-128.66 -1030.98,51.66 -1175.63,540.97 -136.89,733.64 -906.44,553.63 -877.75,86.67 z M 18156,8753.73 c 380.63,-208.16 856.59,-70.82 1063.1,306.77 206.5,377.58 65.34,852.43 -315.29,1060.59 -380.62,208.17 -856.59,70.83 -1063.09,-306.76 -206.51,-377.59 -65.34,-852.43 315.28,-1060.6 z"
   id="path5" />
   </g>
   <path
   class="fil4"
   d="m 6530.93,9701.48 v -759.13 l -964.83,333.03 279.17,-151.81 V 8364.43 H 6770.9 V 7649.38 H 5027.36 v 3585.04 h 817.91 V 9931.65 Z m 1199.91,764.02 V 7649.38 h -817.91 v 3585.04 h 1743.55 v -715.05 h -1229.3 z m 2037.4,-1821.9 c 0,102.84 -24.49,200.8 -78.36,288.95 l -386.91,656.27 127.33,-313.44 -200.8,-342.83 c -48.97,-88.15 -78.36,-186.11 -78.36,-288.95 v -994.22 h -817.89 v 1146.05 c 0,102.84 29.39,205.69 83.25,288.95 l 631.8,1008.9 v 1141.14 h 822.8 v -1141.14 l 631.78,-1008.9 c 53.88,-83.26 83.25,-186.11 83.25,-288.95 V 7649.38 h -817.89 z m 4055.2,2590.82 c 205.7,0 308.55,-102.86 308.55,-308.55 V 7957.94 c 0,-205.7 -102.85,-308.56 -308.55,-308.56 h -1944.35 v 3585.04 z m -666.08,-2869.99 c 102.86,0 156.73,53.87 156.73,156.73 v 1841.49 c 0,102.85 -53.87,156.72 -156.73,156.72 h -764.02 L 12697,10465.5 V 8364.43 Z m 3227.51,1356.64 c 195.92,-68.56 293.86,-200.81 293.86,-406.5 V 7957.94 c 0,-205.7 -102.86,-308.56 -308.55,-308.56 h -1944.35 v 3585.04 h 817.91 v -1146.03 l 225.28,-63.68 426.1,1209.71 h 871.78 L 16247.74,9765.15 Z M 15704.1,8364.43 c 102.86,0 156.72,53.87 156.72,156.73 v 465.27 c 0,102.84 -48.97,171.42 -146.91,200.8 l -749.33,239.98 279.16,-146.92 v -915.86 z m 4638.01,2869.99 h 817.9 V 9642.7 l -166.52,-710.15 783.61,2301.87 h 852.19 V 7649.38 h -817.89 v 1777.83 l -602.41,-1777.83 h -866.88 z m 4089.5,-1532.94 v -759.13 l -964.83,333.03 279.16,-151.81 v -759.14 h 925.64 v -715.05 h -1743.54 v 3585.04 h 1743.54 v -715.05 h -1229.3 l 303.66,-53.87 v -533.85 z"
   id="path6" />
   <path
   class="fil5"
   d="m 5743.59,12851.45 c 0,174.33 -35.81,243.59 -188.64,243.59 -136.14,0 -188.67,-78.81 -188.67,-238.79 v -145.68 h -300.89 v 162.39 c 0,324.76 183.87,491.92 489.56,491.92 341.47,0 520.57,-193.42 520.57,-482.37 v -1158.16 h -331.93 z m 1694.49,229.25 c -274.6,0 -434.61,-167.15 -434.61,-542.06 0,-374.91 155.23,-573.1 434.61,-573.1 277.01,0 429.84,198.19 429.84,573.1 0,374.91 -191.04,542.06 -429.84,542.06 z m 0,284.18 c 487.14,0 756.99,-281.78 756.99,-826.24 0,-544.46 -269.85,-866.82 -756.99,-866.82 -487.14,0 -761.76,322.36 -761.76,859.65 0,534.91 274.62,833.41 761.76,833.41 z m 2107.63,-1365.91 c 164.76,0 231.63,88.34 231.63,212.51 0,121.8 -66.87,210.16 -243.57,210.16 h -415.52 v -422.67 z m 499.08,1310.98 v -448.93 c 0,-186.27 -52.54,-265.06 -193.43,-310.44 152.83,-54.92 236.42,-198.21 236.42,-367.74 0,-262.68 -193.44,-458.49 -487.14,-458.49 h -804.75 v 1585.6 h 322.36 v -620.88 h 353.42 c 191.04,0 248.37,59.7 248.37,212.54 v 408.34 z m 2088.52,0 v -852.5 h -661.48 v 265.06 h 351.06 c 0,198.21 -169.57,362.97 -386.87,362.97 -308.04,0 -439.38,-296.1 -439.38,-556.39 0,-377.31 176.7,-582.67 441.78,-582.67 181.47,0 341.49,119.4 358.21,267.46 h 334.3 c -23.88,-317.61 -315.21,-542.06 -692.51,-542.06 -513.43,0 -780.88,374.91 -780.88,842.95 0,441.76 279.4,850.11 718.78,850.11 217.3,0 398.8,-78.82 475.21,-212.54 l 7.17,157.61 z m 1818.66,0 v -281.78 h -881.16 v -408.34 h 776.09 v -279.38 h -776.09 v -339.1 h 842.96 v -277 h -1165.32 v 1585.6 z m 1462.89,-269.83 v -427.46 h 425.06 c 148.04,0 238.8,62.09 238.8,200.61 0,128.94 -90.76,226.85 -243.59,226.85 z m 398.78,-1041.15 c 155.23,0 219.7,50.13 219.7,171.93 0,112.23 -69.25,171.93 -200.59,171.93 h -417.89 v -343.86 z m -4.77,1310.98 c 398.79,0 592.21,-183.87 592.21,-472.82 0,-226.85 -107.45,-334.3 -241.17,-384.45 109.83,-45.38 193.42,-160.01 193.42,-296.1 0,-265.08 -167.16,-432.23 -477.6,-432.23 h -780.85 v 1585.6 z m 1907.02,-1310.98 c 164.77,0 231.64,88.34 231.64,212.51 0,121.8 -66.87,210.16 -243.58,210.16 h -415.52 v -422.67 z m 499.1,1310.98 v -448.93 c 0,-186.27 -52.55,-265.06 -193.44,-310.44 152.84,-54.92 236.42,-198.21 236.42,-367.74 0,-262.68 -193.44,-458.49 -487.16,-458.49 h -804.74 v 1585.6 h 322.36 v -620.88 h 353.42 c 191.04,0 248.38,59.7 248.38,212.54 v 408.34 z m 1374.51,-229.25 c -274.61,0 -434.61,-167.15 -434.61,-542.06 0,-374.91 155.23,-573.1 434.61,-573.1 277,0 429.83,198.19 429.83,573.1 0,374.91 -191.04,542.06 -429.83,542.06 z m 0,284.18 c 487.14,0 756.99,-281.78 756.99,-826.24 0,-544.46 -269.85,-866.82 -756.99,-866.82 -487.14,0 -761.77,322.36 -761.77,859.65 0,534.91 274.63,833.41 761.77,833.41 z m 2735.65,-54.93 444.16,-1585.6 h -339.08 l -257.91,1026.82 -241.17,-1026.82 h -348.65 l -219.68,1026.82 -260.28,-1026.82 h -353.44 l 448.95,1585.6 h 310.43 l 250.74,-1031.6 245.95,1031.6 z m 2308.22,0 v -1585.6 h -310.44 V 12744 l -630.44,-1019.65 h -351.02 v 1585.6 h 308.04 v -1065.03 l 678.2,1065.03 z"
   id="path7" />
  </g>
 </g>
</svg>
